<mxfile host="drawio-plugin" modified="2022-01-04T13:16:24.452Z" agent="5.0 (Macintosh; Intel Mac OS X 11_6_1) AppleWebKit/537.36 (KHTML, like Gecko) Chrome/89.0.4389.114 Safari/537.36" etag="zMvQtK3vFlVssAvb2tXT" version="15.5.4" type="embed"><diagram id="Zy89S-8wVtksZ2xb23us" name="第 1 页"><mxGraphModel dx="1621" dy="1199" grid="1" gridSize="10" guides="1" tooltips="1" connect="1" arrows="1" fold="1" page="1" pageScale="1" pageWidth="2336" pageHeight="1654" math="0" shadow="0"><root><mxCell id="0"/><mxCell id="1" parent="0"/><mxCell id="25qxJztXr9IiYX6inyZA-1" value="&lt;font style=&quot;font-size: 20px&quot;&gt;unsafe.Pointer&lt;/font&gt;" style="rounded=1;whiteSpace=wrap;html=1;fillColor=#fff2cc;strokeColor=#d6b656;" parent="1" vertex="1"><mxGeometry x="440" y="120" width="160" height="80" as="geometry"/></mxCell><mxCell id="2" value="&lt;font style=&quot;font-size: 20px&quot;&gt;*T&lt;br&gt;&lt;/font&gt;" style="rounded=1;whiteSpace=wrap;html=1;fillColor=#dae8fc;strokeColor=#6c8ebf;" vertex="1" parent="1"><mxGeometry x="680" y="120" width="160" height="80" as="geometry"/></mxCell><mxCell id="3" value="&lt;font style=&quot;font-size: 20px&quot;&gt;uintptr&lt;/font&gt;" style="rounded=1;whiteSpace=wrap;html=1;fillColor=#ffe6cc;strokeColor=#d79b00;" vertex="1" parent="1"><mxGeometry x="200" y="120" width="160" height="80" as="geometry"/></mxCell><mxCell id="4" value="" style="shape=flexArrow;endArrow=classic;startArrow=classic;html=1;rounded=0;fontSize=20;exitX=1;exitY=0.5;exitDx=0;exitDy=0;entryX=0;entryY=0.5;entryDx=0;entryDy=0;" edge="1" parent="1" source="3" target="25qxJztXr9IiYX6inyZA-1"><mxGeometry width="100" height="100" relative="1" as="geometry"><mxPoint x="770" y="650" as="sourcePoint"/><mxPoint x="870" y="550" as="targetPoint"/></mxGeometry></mxCell><mxCell id="5" value="" style="shape=flexArrow;endArrow=classic;startArrow=classic;html=1;rounded=0;fontSize=20;exitX=1;exitY=0.5;exitDx=0;exitDy=0;entryX=0;entryY=0.5;entryDx=0;entryDy=0;" edge="1" parent="1"><mxGeometry width="100" height="100" relative="1" as="geometry"><mxPoint x="600" y="159.5" as="sourcePoint"/><mxPoint x="680" y="159.5" as="targetPoint"/></mxGeometry></mxCell><mxCell id="6" value="" style="shape=flexArrow;endArrow=classic;startArrow=classic;html=1;rounded=0;fontSize=20;exitX=0.5;exitY=0;exitDx=0;exitDy=0;entryX=0.5;entryY=0;entryDx=0;entryDy=0;" edge="1" parent="1" source="3" target="2"><mxGeometry width="100" height="100" relative="1" as="geometry"><mxPoint x="770" y="650" as="sourcePoint"/><mxPoint x="870" y="550" as="targetPoint"/><Array as="points"><mxPoint x="520" y="40"/></Array></mxGeometry></mxCell><mxCell id="7" value="&lt;font style=&quot;font-size: 40px&quot; color=&quot;#ff0000&quot;&gt;X&lt;/font&gt;" style="text;html=1;strokeColor=none;fillColor=none;align=center;verticalAlign=middle;whiteSpace=wrap;rounded=0;fontSize=20;" vertex="1" parent="1"><mxGeometry x="490" y="30" width="60" height="30" as="geometry"/></mxCell></root></mxGraphModel></diagram></mxfile>